PathFileType	4	(X/Y/Z)	C:/Users/opensim2020/Desktop/walking_exp_matlab/subject01_walking12_straight_04.trc	
DataRate	CameraRate	NumFrames	NumMarkers	Units	OrigDataRate	OrigDataStartFrame	OrigNumFrames	
100.00	100.00	8	44	mm	100.00	2522	172	
Frame#	Time	LFHD			RFHD			LBHD			RBHD			C7			T10			CLAV			STRN			RBAK			LSHO			LUPA			LELB			LFRM			LWRA			LWRB			LFIN			RSHO			RUPA			RELB			RFRM			RWRA			RWRB			RFIN			LASI			RASI			LPSI			RPSI			LTHI			LKNE			LTIB			LANK			LHEE			LTOE			RTHI			RKNE			RTIB			RANK			RHEE			RTOE			*39			*40			*41			*42			*43			
		X1	Y1	Z1	X2	Y2	Z2	X3	Y3	Z3	X4	Y4	Z4	X5	Y5	Z5	X6	Y6	Z6	X7	Y7	Z7	X8	Y8	Z8	X9	Y9	Z9	X10	Y10	Z10	X11	Y11	Z11	X12	Y12	Z12	X13	Y13	Z13	X14	Y14	Z14	X15	Y15	Z15	X16	Y16	Z16	X17	Y17	Z17	X18	Y18	Z18	X19	Y19	Z19	X20	Y20	Z20	X21	Y21	Z21	X22	Y22	Z22	X23	Y23	Z23	X24	Y24	Z24	X25	Y25	Z25	X26	Y26	Z26	X27	Y27	Z27	X28	Y28	Z28	X29	Y29	Z29	X30	Y30	Z30	X31	Y31	Z31	X32	Y32	Z32	X33	Y33	Z33	X34	Y34	Z34	X35	Y35	Z35	X36	Y36	Z36	X37	Y37	Z37	X38	Y38	Z38	X39	Y39	Z39	X40	Y40	Z40	X41	Y41	Z41	X42	Y42	Z42	X43	Y43	Z43	X44	Y44	Z44	

151	1.500	1506.54944	-725.23059	1638.42102	1392.35889	-731.43951	1633.97864	1509.16492	-602.25024	1621.36560	1388.28931	-605.17786	1616.10449	1479.10681	-521.67059	1418.74670	1470.46155	-494.82727	1118.68420	1472.54260	-664.86414	1349.34094	1482.17480	-712.26953	1199.27637	1406.56531	-466.87607	1217.93896	1636.19299	-611.24579	1384.30579	1728.95459	-595.63007	1204.83130	1740.65283	-599.11499	1050.00146	1759.61853	-687.13623	970.88531	1739.13843	-814.66315	918.02496	1758.05798	-770.07617	882.35559	1770.86853	-845.94891	849.06848	1322.15002	-595.20331	1373.07568	1231.71008	-517.34387	1176.30176	1231.95313	-504.89709	1052.47437	1201.25586	-514.61713	932.34686	1218.44312	-577.13190	804.29578	1181.49048	-532.99683	812.45508	1183.23730	-556.62506	729.46460	1583.68420	-684.60083	920.70398	1366.15198	-703.55103	934.83722	1512.50403	-502.88693	919.59546	1367.94141	-516.54883	932.78912	1650.73499	-672.11981	585.74274	1651.40833	-667.17273	453.37402	1665.53564	-514.93964	352.66507	1618.27051	-336.64349	227.79401	1559.15149	-299.58780	247.04851	1624.86462	-354.66336	77.42854	1313.90308	-700.79541	600.15912	1347.58716	-731.60468	445.48627	1344.06738	-690.13965	272.00177	1400.01135	-671.77856	70.52413	1448.94604	-621.67188	33.91780	1403.86438	-811.88715	31.93869	1412.90491	-728.96704	1669.95837	-3101.97803	1973.09448	1023.81305	-3140.66602	2012.51025	1021.93555						 
152	1.510	1505.13599	-736.19415	1638.34729	1390.94861	-742.09424	1633.80151	1508.10803	-613.15533	1621.80640	1387.16467	-615.81134	1616.43884	1478.04309	-531.53534	1419.48303	1468.75403	-504.18710	1119.46338	1471.90088	-674.66278	1349.91553	1481.25122	-721.69183	1199.66382	1405.04138	-476.26471	1218.96704	1635.48254	-620.74719	1384.70898	1727.36731	-603.14984	1204.86414	1738.44727	-605.99976	1050.08313	1756.96057	-691.56458	968.40271	1736.36194	-817.51648	911.89258	1754.96350	-771.81494	877.33331	1767.40015	-846.73187	841.71698	1321.18665	-605.40344	1373.77112	1230.07959	-528.47992	1176.98828	1230.02039	-516.49738	1052.82983	1199.61475	-528.91376	932.76611	1217.58618	-594.47302	806.28223	1180.33679	-550.57172	813.18115	1182.14368	-576.46240	730.99103	1581.99548	-694.47980	921.84534	1364.29126	-712.26331	934.91418	1511.50220	-512.45990	920.16083	1366.86414	-525.52478	932.96802	1649.66565	-688.76941	588.06091	1650.31787	-687.55652	455.99307	1663.19861	-535.69281	355.30551	1615.99426	-357.79153	230.19469	1555.65881	-320.41147	247.29128	1628.08228	-378.01474	80.95815	1312.91516	-707.63373	599.59705	1346.84888	-735.89496	444.83978	1343.49072	-692.34998	271.68375	1400.01782	-672.12085	70.52099	1448.68542	-621.69012	33.98339	1403.99048	-812.18652	31.74758	1411.42285	-739.78357	1669.71448	-3102.00659	1973.07007	1023.48151	-3140.74048	2012.54675	1022.04590						 
153	1.520	1503.89697	-747.10370	1638.25818	1389.59973	-752.65326	1633.55432	1507.20313	-623.97980	1622.18542	1386.27942	-626.27838	1616.75061	1477.05432	-541.31787	1420.29578	1467.25439	-513.41278	1120.26147	1471.13550	-684.19879	1350.15454	1480.27246	-731.03192	1199.93750	1403.62598	-485.54785	1219.98816	1634.71045	-630.22278	1385.10144	1725.78149	-610.77667	1204.91345	1736.31067	-612.77759	1050.18250	1754.41907	-695.87604	966.10419	1733.60046	-820.01770	905.95331	1751.98389	-773.27130	872.47650	1764.05408	-847.17419	834.57294	1320.46509	-615.17731	1374.66992	1228.43762	-539.52045	1177.66858	1228.05042	-528.04810	1053.31738	1198.14514	-543.12872	933.19031	1216.53918	-612.21924	808.71143	1179.12646	-567.98181	814.20801	1181.09790	-596.19110	732.97034	1580.13159	-704.29626	923.02258	1362.19446	-721.12085	935.19904	1510.78723	-521.93945	920.88141	1366.24487	-534.09192	933.21661	1648.69385	-705.37463	590.48785	1649.22119	-707.56293	458.64560	1660.70801	-556.30743	357.61816	1613.91064	-379.26334	231.53233	1552.74207	-341.35843	246.42482	1630.25134	-402.77246	83.66623	1312.24072	-713.56226	599.45532	1346.10901	-740.00543	444.22998	1342.98804	-694.67566	271.64337	1400.04553	-672.45135	70.54739	1448.68066	-621.78827	34.16420	1404.14392	-812.40228	31.55814	1410.16296	-750.51898	1669.61084	-3101.89185	1973.09192	1023.51111	-3140.82520	2012.48706	1022.06604						 
154	1.530	1502.76709	-757.85333	1638.15247	1388.48364	-763.11987	1633.47778	1506.41028	-634.71808	1622.54236	1385.47229	-636.68988	1617.10486	1476.08521	-551.01459	1421.10242	1465.99768	-522.49121	1121.05969	1470.29431	-693.76587	1350.54089	1479.24084	-740.23657	1200.20850	1402.22339	-494.81445	1221.02832	1633.90002	-639.62543	1385.44995	1724.32312	-618.64648	1204.99280	1734.18005	-619.38849	1050.41235	1751.91565	-700.04480	963.97266	1730.75525	-822.16046	899.97528	1749.17053	-774.52441	867.90216	1760.63281	-847.32074	827.66791	1319.59705	-625.03864	1375.39343	1226.86719	-550.35278	1178.31714	1226.10278	-539.43591	1053.78979	1196.49365	-557.52472	933.71558	1215.68408	-629.85590	811.36218	1178.06934	-585.49762	815.29272	1179.96960	-616.26776	735.13031	1578.20056	-714.11206	924.14441	1360.03113	-729.94348	935.59113	1510.26245	-531.44916	921.57690	1365.72778	-542.76508	933.36975	1647.76746	-721.82306	592.92792	1648.09094	-727.06476	461.24179	1658.21570	-576.83612	359.53165	1612.02795	-400.91821	231.63741	1550.32410	-362.20892	244.48718	1631.60510	-429.04541	85.40280	1311.53174	-719.12860	599.16235	1345.44897	-744.13702	443.72192	1342.50244	-697.18195	271.41519	1400.04346	-672.60162	70.62164	1448.83728	-621.93958	34.32565	1404.27795	-812.58893	31.42175	1409.02527	-761.21698	1669.54175	-3101.90527	1973.07312	1023.64160	-3140.70313	2012.54382	1022.13446						 
155	1.540	1501.72400	-768.53149	1638.00232	1387.38196	-773.42529	1633.34082	1505.71326	-645.35608	1622.83911	1384.80054	-646.97296	1617.44165	1475.22363	-560.65472	1421.82507	1464.93909	-531.47101	1121.85229	1469.50061	-703.18024	1350.97546	1478.13965	-749.34314	1200.43628	1400.93225	-504.06741	1222.03113	1633.07654	-648.99493	1385.83020	1722.98901	-626.70227	1205.17200	1731.99463	-625.90326	1050.65295	1749.50122	-704.10303	962.01965	1727.91675	-824.09491	894.25226	1746.55188	-775.58795	863.56799	1757.38379	-847.25214	820.89874	1318.63306	-634.85767	1376.31616	1225.22595	-561.26276	1179.04504	1224.11597	-550.79675	1054.28845	1195.06055	-571.75378	934.33765	1214.85132	-647.18262	814.00201	1176.97620	-602.97235	816.78290	1178.93005	-636.34393	737.65088	1576.21753	-723.83209	925.19177	1357.74341	-738.67535	936.00977	1510.02698	-540.97510	922.35095	1365.53967	-551.32422	933.72009	1646.82361	-738.11908	595.31171	1647.01575	-746.07001	463.81583	1655.88318	-597.16565	361.15378	1610.32214	-422.92651	230.74376	1548.51367	-383.30661	241.54803	1631.98694	-457.06195	86.36784	1310.71606	-724.53577	598.89764	1344.80505	-748.00201	443.06329	1342.05579	-699.68835	271.23911	1399.62878	-673.27386	70.38344	1448.67065	-621.60181	34.26036	1404.40686	-812.66443	31.21060	1407.98987	-771.76355	1669.42261	-3101.79297	1973.17615	1023.49164	-3140.80054	2012.57190	1022.07452						 
156	1.550	1500.80078	-779.10315	1637.82898	1386.45459	-783.63220	1633.28210	1505.13062	-655.92737	1623.10803	1384.20959	-657.10254	1617.88599	1474.36780	-570.24664	1422.48706	1463.86560	-540.61047	1122.49133	1468.64258	-712.59662	1351.28198	1477.07678	-758.57990	1200.72388	1399.69275	-513.25140	1222.97900	1632.23389	-658.40424	1386.17639	1721.89832	-634.88684	1205.36462	1729.81006	-632.21344	1050.90076	1747.13940	-708.13873	960.13611	1725.17444	-825.93579	888.63641	1744.02649	-776.45380	859.47327	1754.25635	-846.89697	814.43646	1318.04370	-644.42072	1377.11365	1223.49243	-571.95703	1179.90906	1222.20203	-562.06561	1054.73914	1193.57336	-586.09375	935.06097	1214.17017	-664.30267	816.73627	1176.09326	-620.68854	818.46344	1177.83203	-656.33319	740.53326	1574.11829	-733.08813	925.72528	1355.47449	-747.29779	936.41498	1509.88916	-550.47919	923.02063	1365.45142	-559.81354	934.09302	1645.92969	-754.23004	597.60370	1645.88416	-764.68024	466.28995	1653.78992	-617.10321	362.56287	1608.97302	-445.56915	228.57317	1547.14636	-404.16635	237.07591	1631.60120	-486.85364	86.87788	1309.87512	-729.67841	598.74500	1344.03625	-751.69531	442.46243	1341.58960	-702.14038	270.99893	1399.49683	-673.39648	70.42960	1448.90698	-621.91736	34.78805	1404.17151	-812.49078	31.04001	1407.10291	-782.17761	1669.30542	-3102.07715	1973.09045	1023.59094	-3140.53442	2012.51001	1021.98969						 
157	1.560	1499.90222	-789.59430	1637.61926	1385.51746	-793.77832	1633.16528	1504.63330	-666.36096	1623.32715	1383.68286	-667.13611	1618.23401	1473.52368	-579.74536	1423.01953	1462.98804	-549.59570	1123.11462	1467.83716	-722.01337	1351.65552	1475.99146	-767.73352	1200.99976	1398.43616	-522.48108	1223.81128	1631.42163	-667.81281	1386.46509	1720.89600	-643.18048	1205.55347	1727.61194	-638.43756	1051.15137	1744.86365	-711.96179	958.33911	1722.34033	-827.44452	883.17731	1741.70520	-777.25311	855.60675	1751.17078	-846.38861	808.18121	1317.33044	-653.85864	1378.06384	1221.97485	-582.46777	1180.62512	1220.32251	-573.22015	1055.17004	1192.18506	-600.34094	935.84503	1213.45520	-681.70453	819.88922	1175.19824	-638.51837	820.17834	1176.86951	-676.31848	743.60681	1572.59387	-743.18762	926.45239	1353.25464	-755.83746	936.81128	1509.97864	-559.95667	923.68610	1365.43872	-568.22595	934.48218	1645.04529	-770.20447	599.92957	1644.73743	-782.86682	468.77884	1651.85229	-636.82471	363.78217	1607.62073	-468.86923	225.08771	1546.59741	-425.79208	231.75613	1630.48608	-517.68408	86.55407	1308.98645	-734.58130	598.63763	1343.21863	-755.01892	441.80341	1341.10364	-704.30005	270.80798	1399.33704	-673.57874	70.64185	1448.70447	-621.81519	34.89334	1404.14697	-812.52869	30.93188	1406.28027	-792.44299	1669.22302	-3102.03540	1973.01465	1023.87994	-3140.68335	2012.49487	1022.01947						 
158	1.570	1499.05920	-799.93103	1637.40833	1384.62573	-803.79431	1633.17773	1504.17542	-676.70715	1623.53064	1383.27222	-677.00110	1618.66943	1472.74341	-589.21649	1423.50366	1462.16626	-558.62482	1123.58130	1467.02820	-731.34796	1351.91797	1474.88257	-776.92999	1201.29810	1397.31921	-531.69781	1224.54114	1630.63354	-677.25055	1386.64709	1719.92529	-651.47833	1205.69922	1725.34302	-644.78339	1051.23340	1742.68506	-715.74304	956.60480	1719.69727	-828.83264	877.81329	1739.42078	-777.93182	851.84857	1748.36707	-845.65552	802.12402	1316.67810	-663.03326	1378.32617	1220.48181	-592.81415	1181.32361	1218.28674	-584.30493	1055.57104	1190.95874	-614.93524	936.58936	1212.40283	-699.84448	823.67322	1174.25464	-656.19922	822.09174	1175.97644	-696.17664	746.95789	1570.82214	-752.99164	927.19775	1351.15344	-764.08350	937.05151	1510.16602	-569.33057	924.32422	1365.52258	-576.58026	934.94873	1644.19250	-785.87659	602.23792	1643.51917	-800.69098	471.43909	1649.79089	-656.41846	364.41415	1606.51880	-492.61276	220.57281	1546.12207	-447.97101	225.02589	1629.10339	-549.33185	85.84827	1308.14941	-739.23468	598.26715	1342.35229	-758.29266	441.21652	1340.49915	-706.23114	270.62277	1399.20886	-673.64691	70.51822	1448.68555	-621.84637	35.24332	1404.04944	-812.62463	30.87089	1405.45911	-802.64996	1669.16858	-3101.84009	1973.03247	1023.58752	-3140.76196	2012.50049	1022.15314						 
